<svg xmlns="http://www.w3.org/2000/svg" viewBox="0 0 1080 1920" data-fill-rule="evenodd" data-name="Sunda Strait" data-lon="103.5 107.64" data-lat="-7.9 -4.3">
  <path data-role="water" fill-rule="evenodd" fill="#121110" d="M60 150 H1020 V990 H60 Z M958.3 548.4 L981.7 575.1 L1002.1 589.3 L1026.2 597.0 L1060.0 598.9 L1060.0 941.2 L1032.9 928.3 L1010.2 912.2 L998.4 906.4 L937.7 890.1 L888.1 884.4 L786.1 877.0 L763.8 872.0 L745.3 866.0 L735.1 852.7 L736.4 835.8 L743.7 821.2 L753.7 806.6 L760.2 792.5 L685.7 763.2 L626.8 747.1 L601.4 744.0 L575.9 744.1 L547.2 747.4 L518.8 745.9 L505.4 741.1 L491.7 739.4 L478.1 742.9 L467.1 741.6 L464.2 728.2 L471.2 716.9 L485.7 704.0 L493.8 701.7 L497.6 721.8 L501.7 725.9 L514.4 730.3 L520.0 729.0 L542.5 703.2 L548.8 690.6 L559.7 656.2 L571.5 662.9 L583.5 658.8 L590.3 653.3 L609.2 573.8 L624.9 550.6 L646.4 531.3 L657.1 526.6 L678.2 538.4 L720.8 543.0 L746.2 550.8 L771.6 551.8 L796.4 555.6 L831.1 569.6 L843.3 568.1 L855.7 563.8 L874.3 548.6 L882.3 524.3 L909.2 536.7 L948.5 541.6 Z M20.0 110.0 L602.4 110.0 L600.6 118.0 L613.4 209.2 L614.3 233.9 L611.7 265.2 L613.6 315.6 L597.1 471.2 L594.0 480.5 L581.4 504.3 L564.7 504.1 L551.3 499.9 L541.8 490.8 L536.7 479.5 L529.0 470.3 L488.8 441.6 L478.3 446.3 L437.5 482.0 L426.7 487.3 L413.1 482.9 L391.7 472.3 L324.2 434.8 L320.1 446.7 L319.3 463.0 L332.7 503.8 L334.5 521.6 L322.3 525.2 L315.4 524.4 L287.4 500.7 L261.6 474.5 L232.3 439.1 L210.8 422.2 L191.4 403.4 L136.9 331.9 L122.7 321.0 L38.1 270.5 L20.0 257.5 Z M466.5 696.1 L452.0 701.2 L440.9 696.7 L436.0 690.2 L452.4 674.0 L460.2 670.1 L468.2 668.9 L472.2 677.7 Z"/>
  <path data-role="coast" fill="none" stroke="#ECE7DE" d="M958.3 548.4 L981.7 575.1 L1002.1 589.3 L1026.2 597.0 L1060.0 598.9 L1060.0 941.2 L1032.9 928.3 L1010.2 912.2 L998.4 906.4 L937.7 890.1 L888.1 884.4 L786.1 877.0 L763.8 872.0 L745.3 866.0 L735.1 852.7 L736.4 835.8 L743.7 821.2 L753.7 806.6 L760.2 792.5 L685.7 763.2 L626.8 747.1 L601.4 744.0 L575.9 744.1 L547.2 747.4 L518.8 745.9 L505.4 741.1 L491.7 739.4 L478.1 742.9 L467.1 741.6 L464.2 728.2 L471.2 716.9 L485.7 704.0 L493.8 701.7 L497.6 721.8 L501.7 725.9 L514.4 730.3 L520.0 729.0 L542.5 703.2 L548.8 690.6 L559.7 656.2 L571.5 662.9 L583.5 658.8 L590.3 653.3 L609.2 573.8 L624.9 550.6 L646.4 531.3 L657.1 526.6 L678.2 538.4 L720.8 543.0 L746.2 550.8 L771.6 551.8 L796.4 555.6 L831.1 569.6 L843.3 568.1 L855.7 563.8 L874.3 548.6 L882.3 524.3 L909.2 536.7 L948.5 541.6 Z M20.0 110.0 L602.4 110.0 L600.6 118.0 L613.4 209.2 L614.3 233.9 L611.7 265.2 L613.6 315.6 L597.1 471.2 L594.0 480.5 L581.4 504.3 L564.7 504.1 L551.3 499.9 L541.8 490.8 L536.7 479.5 L529.0 470.3 L488.8 441.6 L478.3 446.3 L437.5 482.0 L426.7 487.3 L413.1 482.9 L391.7 472.3 L324.2 434.8 L320.1 446.7 L319.3 463.0 L332.7 503.8 L334.5 521.6 L322.3 525.2 L315.4 524.4 L287.4 500.7 L261.6 474.5 L232.3 439.1 L210.8 422.2 L191.4 403.4 L136.9 331.9 L122.7 321.0 L38.1 270.5 L20.0 257.5 Z M466.5 696.1 L452.0 701.2 L440.9 696.7 L436.0 690.2 L452.4 674.0 L460.2 670.1 L468.2 668.9 L472.2 677.7 Z"/>
</svg>
